<?xml version="1.0" encoding="UTF-8"?>
<svg width="123px" height="30px" viewBox="0 0 123 30" version="1.1" xmlns="http://www.w3.org/2000/svg" xmlns:xlink="http://www.w3.org/1999/xlink">
    <title>WS_Logo-Vertical-Brand-Primary</title>
    <g id="WS_Logo-Vertical-Brand-Primary" stroke="none" stroke-width="1" fill="none" fill-rule="evenodd">
        <g id="Group" fill="#7B4DA7" fill-rule="nonzero">
            <g id="Wellstar-Logo">
                <path d="M5.81378622,11.6002802 C5.81378622,14.724991 8.29287706,17.2718995 11.3984824,17.3928421 C11.5197252,17.3928421 11.6208126,17.4936791 11.6208126,17.6146217 L11.6208126,17.6146217 L11.6275311,23.1989107 L11.6275311,23.1989107 L11.8433506,23.1947299 C14.8733771,23.0807954 17.3091935,20.6521692 17.4275496,17.6280254 C17.4275496,17.5070828 17.528637,17.4062458 17.6498798,17.4062458 L17.6498798,17.4062458 L23.2480336,17.3995439 C23.2480336,23.689486 18.2292202,28.8101103 11.9708975,28.9914726 C11.782263,28.9982775 11.6273244,28.8436195 11.6273244,28.6555553 L11.6273244,28.6555553 L11.6206059,23.1989107 C11.6212778,23.1989107 11.6219497,23.1989106 11.6226216,23.1989104 C5.31982339,23.1967845 0.188623737,18.1912015 0.00677271076,11.9497042 C3.60450983e-05,11.761537 0.154978966,11.6069821 0.343606185,11.6069821 L0.343606185,11.6069821 Z M17.4411933,5.79967613 C23.7467521,5.79967613 28.8800899,10.8060597 29.0620059,17.0488826 C29.0687244,17.2370499 28.9137857,17.3916048 28.7251513,17.3916048 L28.7251513,17.3916048 L23.2549588,17.3984098 C23.2549588,14.2735958 20.775837,11.7266874 17.670242,11.6057448 C17.5489992,11.6057448 17.4479118,11.5049078 17.4479118,11.3839652 L17.4479118,11.3839652 Z M17.0909017,0.00814047697 C17.2795361,0.00142049276 17.4344748,0.155979841 17.4277563,0.337419486 L17.4277563,0.337419486 L17.4344748,5.79404658 C14.3019025,5.79404658 11.7487739,8.26700786 11.6275311,11.3648907 C11.6275311,11.4858333 11.5264437,11.5866703 11.4052008,11.5866703 L11.4052008,11.5866703 L5.80700571,11.5933721 C5.80700571,5.3102144 10.8258605,0.189579813 17.0909017,0.00814047697 Z" id="Combined-Shape"></path>
                <g id="Group-7" transform="translate(33.790763, 7.346380)">
                    <path d="M0.208917936,0.443538609 L3.17983306,0.443538609 C3.26738012,0.443538609 3.34149021,0.50402021 3.36846752,0.584658906 L6.44708516,10.8393421 L9.92323054,0.584658906 C9.95020785,0.50402021 10.0243179,0.450261078 10.111865,0.450261078 L11.7960347,0.450261078 C11.8835818,0.450261078 11.9576919,0.50402021 11.9846692,0.584658906 L15.5213843,10.8460439 L18.559691,0.598093534 C18.586565,0.517454837 18.6606751,0.456973237 18.7483255,0.456973237 L21.7191373,0.456973237 C21.8539205,0.456973237 21.948186,0.591371065 21.9077717,0.719056735 L16.9226541,15.7785009 C16.8956768,15.8592324 16.8215667,15.9129503 16.7340196,15.9129503 L14.4031179,15.9129503 C14.3155709,15.9129503 14.2414608,15.8592324 14.2144835,15.7785009 L10.9673868,5.79264434 L7.72039357,15.7785009 C7.69341626,15.8592324 7.61930617,15.9129503 7.53175911,15.9129503 L5.20085743,15.9129503 C5.11331037,15.9129503 5.03920029,15.8592324 5.01222298,15.7785009 L0.00684650753,0.719056735 C-0.0268492908,0.571213968 0.0675196168,0.443538609 0.208917936,0.443538609 Z" id="Path"></path>
                    <path d="M27.7081003,4.19997595 C30.9550936,4.19997595 33.4342154,6.31002701 33.4342154,9.93211807 C33.4342154,10.3286613 33.4005196,10.691489 33.3533868,11.0544198 C33.3399499,11.1551538 33.2522994,11.2290803 33.1513154,11.2290803 L24.757444,11.2290803 C25.1144541,12.6066709 26.1384549,13.6550462 28.0920877,13.6550462 C29.2709238,13.6550462 30.6384978,13.2316956 31.595107,12.6268796 C31.6961944,12.5596549 31.8308742,12.5932672 31.8848289,12.6940012 L32.8548751,14.4076121 C32.9087263,14.5017473 32.8818524,14.6159881 32.794202,14.6764078 C31.6961944,15.4290769 29.9783289,16.1414318 27.9573045,16.1414318 C23.6794885,16.1414318 21.7528331,13.2316956 21.7528331,10.1808082 C21.7528331,6.77369178 24.1444079,4.19997595 27.7081003,4.19997595 Z M27.7148188,6.6527492 C26.226002,6.6527492 25.1144541,7.55327136 24.757444,9.03840087 L30.5643877,9.03840087 C30.2949247,7.5733769 29.223791,6.6527492 27.7148188,6.6527492 Z" id="Shape"></path>
                    <path d="M36.0483272,15.6844688 L36.0483272,0.208324367 C36.0483272,0.094083635 36.1425927,-1.831519e-15 36.2571171,-1.831519e-15 L38.7968087,-1.831519e-15 C38.9113331,-1.831519e-15 39.005702,0.094083635 39.005702,0.208324367 L39.005702,15.6844688 C39.005702,15.7987096 38.9113331,15.8927417 38.7968087,15.8927417 L36.2571171,15.8927417 C36.1358742,15.8927417 36.0483272,15.7987096 36.0483272,15.6844688 Z" id="Path"></path>
                    <path d="M41.7811608,15.6844688 L41.7811608,0.208324367 C41.7811608,0.094083635 41.8754263,-1.831519e-15 41.9899507,-1.831519e-15 L44.5296423,-1.831519e-15 C44.6441667,-1.831519e-15 44.7385356,0.094083635 44.7385356,0.208324367 L44.7385356,15.6844688 C44.7385356,15.7987096 44.6441667,15.8927417 44.5296423,15.8927417 L41.9899507,15.8927417 C41.8754263,15.8927417 41.7811608,15.7987096 41.7811608,15.6844688 Z" id="Path"></path>
                    <path d="M46.961528,13.8567202 L48.2549919,12.3245747 C48.3358205,12.2237377 48.4907591,12.2170358 48.5783062,12.3110679 C49.3866952,13.1846796 50.505065,13.715569 51.5829171,13.715569 C52.4855717,13.715569 53.1525625,13.2586061 53.1525625,12.606774 C53.1525625,12.1901253 52.8830994,11.8743136 52.3373515,11.6256235 C51.7108784,11.3367223 50.2019062,10.8528489 49.5079381,10.496723 C48.2078591,9.87169833 47.5408684,8.8637404 47.5408684,7.54667262 C47.5408684,5.55746103 49.2183196,4.11945067 51.8186843,4.11945067 C53.2266726,4.11945067 54.5941431,4.56290679 55.6855356,5.61128203 C55.7663642,5.68520857 55.7730826,5.81285299 55.705691,5.90018323 L54.4998776,7.46594112 C54.4257675,7.56677816 54.2775473,7.58018186 54.1832818,7.49285162 C53.3680709,6.79400354 52.4585944,6.51850603 51.7378558,6.51850603 C50.9226448,6.51850603 50.4376734,6.95526031 50.4376734,7.47944793 C50.4376734,7.87588801 50.6868776,8.2724312 51.4414154,8.52101821 C52.1555389,8.78981386 53.2872423,9.1661484 54.1900003,9.62981318 C55.4699238,10.3018539 56.1166558,11.1754655 56.1166558,12.512742 C56.1166558,14.5824788 54.3583759,16.1750441 51.5693768,16.1750441 C49.8043784,16.1750441 48.1202087,15.4897028 46.9682465,14.1188141 C46.8874179,14.0515894 46.8941364,13.9373486 46.961528,13.8567202 Z" id="Path"></path>
                    <path d="M65.3662558,15.0864578 C65.3932331,15.1670862 65.3662558,15.2612214 65.2921457,15.3015356 C64.3962095,15.8593355 63.1634188,16.1616404 62.0383305,16.1616404 C59.4178104,16.1616404 58.0569549,14.6160912 58.0569549,11.6660408 L58.0569549,0.645243612 C58.0569549,0.544437508 58.1378868,0.463798811 58.2388709,0.463798811 L60.8325171,0.463798811 C60.9336045,0.463798811 61.0144331,0.544437508 61.0144331,0.645243612 L61.0144331,4.50248706 L64.6049994,4.50248706 C64.7060868,4.50248706 64.7869154,4.58311544 64.7869154,4.68395248 L64.7869154,6.78730169 C64.7869154,6.88813872 64.7060868,6.96876711 64.6049994,6.96876711 L61.0144331,6.96876711 L61.0144331,11.4845754 C61.0144331,12.8017463 61.5196633,13.4938925 62.6312112,13.4938925 C63.2846616,13.4938925 63.8438465,13.2788147 64.3557952,13.0033172 C64.4500608,12.9494962 64.571407,12.9966154 64.6118213,13.0973493 L65.3662558,15.0864578 Z" id="Path"></path>
                    <path d="M72.0491868,4.2086368 C73.6657583,4.2086368 74.8378759,4.92099169 75.6999095,5.86182804 L75.6999095,4.73952626 C75.6999095,4.61188184 75.8074053,4.50434295 75.9355734,4.50434295 L78.273607,4.50434295 C78.4017751,4.4976411 78.5092709,4.60517999 78.5092709,4.73282442 L78.5092709,15.6595173 C78.5092709,15.7871618 78.4017751,15.8947007 78.273607,15.8947007 L75.9355734,15.8947007 C75.8074053,15.8947007 75.6999095,15.7871618 75.6999095,15.6595173 L75.6999095,14.5776329 C74.8647499,15.4780519 73.6657583,16.1701982 72.0491868,16.1701982 C68.7343885,16.1701982 66.3900499,13.5359595 66.3900499,10.1491548 C66.3900499,6.72193289 68.8016768,4.2086368 72.0491868,4.2086368 Z M72.5339515,6.90339832 C70.6269347,6.90339832 69.3474247,8.40863337 69.3474247,10.189469 C69.3474247,12.0106189 70.647607,13.4956453 72.5339515,13.4956453 C74.4202961,13.4956453 75.7402205,11.9837084 75.7402205,10.189469 C75.7402205,8.41533522 74.4202961,6.90339832 72.5339515,6.90339832 Z" id="Shape"></path>
                    <path d="M81.5274221,4.4976411 L83.8788927,4.4976411 C84.0132625,4.4976411 84.1145566,4.60517999 84.1145566,4.73952626 L84.1145566,6.02978666 C84.8287835,4.77313861 85.9202793,4.18853126 87.2608759,4.18853126 C87.6247079,4.18853126 88.0557247,4.25575595 88.4660692,4.37669853 C88.5745986,4.41031087 88.6417835,4.5110448 88.6283465,4.62528553 L88.4195566,6.97062301 C88.4061196,7.11847608 88.2645146,7.21921001 88.1229095,7.17889582 C87.7528759,7.07816189 87.3818087,7.0243409 87.0314137,7.0243409 C85.4820272,7.0243409 84.2427247,7.98528279 84.2427247,10.4716684 L84.2427247,15.6461137 C84.2427247,15.7804599 84.1352289,15.8879988 83.9998255,15.8879988 L81.5212205,15.8879988 C81.3858171,15.8879988 81.2783213,15.7804599 81.2783213,15.6461137 L81.2783213,4.73952626 C81.2917583,4.60517999 81.3992541,4.4976411 81.5274221,4.4976411 Z" id="Path"></path>
                </g>
            </g>
        </g>
    </g>
</svg>